# Blender v2.81 (sub 16) OBJ File: 'CircleTable.blend'
# www.blender.org
mtllib CircleTable.mtl
v 0.000000 0.730000 -0.301187
v 0.000000 0.750000 -0.301187
v 0.074754 0.730000 -0.291725
v 0.074754 0.750000 -0.291725
v 0.144812 0.730000 -0.263933
v 0.144812 0.750000 -0.263933
v 0.205770 0.730000 -0.219556
v 0.205770 0.750000 -0.219556
v 0.253799 0.730000 -0.161384
v 0.253799 0.750000 -0.161384
v 0.285881 0.730000 -0.093072
v 0.285881 0.750000 -0.093072
v 0.300000 0.730000 -0.018912
v 0.300000 0.750000 -0.018912
v 0.295269 0.730000 0.056437
v 0.295269 0.750000 0.056437
v 0.271985 0.730000 0.128239
v 0.271985 0.750000 0.128239
v 0.231611 0.730000 0.191984
v 0.231611 0.750000 0.191984
v 0.176684 0.730000 0.243666
v 0.176684 0.750000 0.243666
v 0.110656 0.730000 0.280037
v 0.110656 0.750000 0.280037
v 0.037674 0.730000 0.298813
v 0.037674 0.750000 0.298812
v -0.037674 0.730000 0.298813
v -0.037674 0.750000 0.298812
v -0.110656 0.730000 0.280037
v -0.110656 0.750000 0.280037
v -0.176684 0.730000 0.243666
v -0.176684 0.750000 0.243666
v -0.231611 0.730000 0.191984
v -0.231611 0.750000 0.191984
v -0.271985 0.730000 0.128239
v -0.271985 0.750000 0.128239
v -0.295269 0.730000 0.056437
v -0.295269 0.750000 0.056437
v -0.300000 0.730000 -0.018912
v -0.300000 0.750000 -0.018912
v -0.285881 0.730000 -0.093072
v -0.285881 0.750000 -0.093072
v -0.253799 0.730000 -0.161385
v -0.253799 0.750000 -0.161385
v -0.205770 0.730000 -0.219556
v -0.205770 0.750000 -0.219556
v -0.144811 0.730000 -0.263933
v -0.144811 0.750000 -0.263933
v -0.074754 0.730000 -0.291725
v -0.074754 0.750000 -0.291725
v -0.000000 0.745679 -0.305403
v -0.000000 0.734321 -0.305403
v 0.000000 0.740000 -0.307697
v 0.075801 0.734321 -0.295808
v 0.075801 0.745679 -0.295808
v 0.076370 0.740000 -0.298030
v 0.146839 0.734321 -0.267627
v 0.146839 0.745679 -0.267627
v 0.147942 0.740000 -0.269637
v 0.208650 0.734321 -0.222629
v 0.208650 0.745679 -0.222629
v 0.210218 0.740000 -0.224302
v 0.257351 0.734321 -0.163643
v 0.257351 0.745679 -0.163643
v 0.259285 0.740000 -0.164873
v 0.289882 0.734321 -0.094375
v 0.289882 0.745679 -0.094375
v 0.292060 0.740000 -0.095084
v 0.304199 0.734321 -0.019176
v 0.304199 0.745679 -0.019176
v 0.306484 0.740000 -0.019321
v 0.299401 0.734321 0.057227
v 0.299401 0.745679 0.057227
v 0.301651 0.740000 0.057657
v 0.275791 0.734321 0.130034
v 0.275791 0.745679 0.130034
v 0.277863 0.740000 0.131011
v 0.234853 0.734321 0.194671
v 0.234853 0.745679 0.194671
v 0.236617 0.740000 0.196134
v 0.179157 0.734321 0.247076
v 0.179157 0.745679 0.247076
v 0.180503 0.740000 0.248932
v 0.112204 0.734321 0.283956
v 0.112204 0.745679 0.283956
v 0.113047 0.740000 0.286090
v 0.038201 0.734321 0.302995
v 0.038201 0.745679 0.302995
v 0.038488 0.740000 0.305271
v -0.038202 0.734321 0.302995
v -0.038202 0.745679 0.302995
v -0.038489 0.740000 0.305271
v -0.112205 0.734321 0.283956
v -0.112205 0.745679 0.283956
v -0.113048 0.740000 0.286090
v -0.179157 0.734321 0.247076
v -0.179157 0.745679 0.247076
v -0.180503 0.740000 0.248932
v -0.234853 0.734321 0.194671
v -0.234853 0.745679 0.194671
v -0.236617 0.740000 0.196133
v -0.275792 0.734321 0.130034
v -0.275792 0.745679 0.130034
v -0.277864 0.740000 0.131011
v -0.299401 0.734321 0.057227
v -0.299401 0.745679 0.057227
v -0.301651 0.740000 0.057656
v -0.304199 0.734321 -0.019177
v -0.304199 0.745679 -0.019177
v -0.306484 0.740000 -0.019321
v -0.289882 0.734321 -0.094375
v -0.289882 0.745679 -0.094375
v -0.292060 0.740000 -0.095084
v -0.257351 0.734321 -0.163643
v -0.257351 0.745679 -0.163643
v -0.259285 0.740000 -0.164873
v -0.208650 0.734321 -0.222629
v -0.208650 0.745679 -0.222629
v -0.210217 0.740000 -0.224302
v -0.146838 0.734321 -0.267627
v -0.146838 0.745679 -0.267627
v -0.147941 0.740000 -0.269637
v -0.075800 0.734321 -0.295808
v -0.075800 0.745679 -0.295808
v -0.076370 0.740000 -0.298031
v 0.326822 -0.004154 -0.227872
v 0.160752 0.738643 -0.118172
v 0.332612 -0.002633 -0.229408
v 0.166542 0.740164 -0.119707
v 0.338296 -0.001693 -0.227170
v 0.172225 0.741104 -0.117470
v 0.341702 -0.001693 -0.222013
v 0.175632 0.741104 -0.112313
v 0.341530 -0.002633 -0.215907
v 0.175460 0.740164 -0.106207
v 0.337846 -0.004154 -0.211184
v 0.171775 0.738643 -0.101484
v 0.332056 -0.005676 -0.209649
v 0.165985 0.737121 -0.099948
v 0.326372 -0.006616 -0.211887
v 0.160301 0.736181 -0.102186
v 0.322966 -0.006616 -0.217043
v 0.156895 0.736181 -0.107343
v 0.323138 -0.005676 -0.223149
v 0.157067 0.737121 -0.113449
v 0.010035 -0.004154 0.398294
v 0.010018 0.738643 0.199262
v 0.008126 -0.002633 0.403971
v 0.008108 0.740164 0.204940
v 0.003126 -0.001693 0.407481
v 0.003109 0.741104 0.208449
v -0.003054 -0.001693 0.407481
v -0.003072 0.741104 0.208450
v -0.008054 -0.002633 0.403973
v -0.008072 0.740164 0.204941
v -0.009965 -0.004154 0.398296
v -0.009982 0.738643 0.199264
v -0.008055 -0.005676 0.392618
v -0.008073 0.737121 0.193586
v -0.003056 -0.006616 0.389108
v -0.003073 0.736181 0.190077
v 0.003125 -0.006616 0.389108
v 0.003107 0.736181 0.190076
v 0.008125 -0.005676 0.392616
v 0.008107 0.737121 0.193585
v -0.335241 -0.004154 -0.215295
v -0.170523 0.738643 -0.103574
v -0.338868 -0.002633 -0.220062
v -0.174150 0.740164 -0.108342
v -0.338965 -0.001693 -0.226170
v -0.174247 0.741104 -0.114449
v -0.335496 -0.001693 -0.231285
v -0.170778 0.741104 -0.119564
v -0.329786 -0.002633 -0.233453
v -0.165067 0.740164 -0.121733
v -0.324015 -0.004154 -0.231847
v -0.159296 0.738643 -0.120126
v -0.320388 -0.005676 -0.227079
v -0.155670 0.737121 -0.115359
v -0.320291 -0.006616 -0.220972
v -0.155572 0.736181 -0.109251
v -0.323760 -0.006616 -0.215857
v -0.159042 0.736181 -0.104136
v -0.329471 -0.005676 -0.213689
v -0.164752 0.737121 -0.101968
vt 0.987290 0.299351
vt 0.988181 0.299351
vt 0.988182 0.318735
vt 0.987290 0.318735
vt 0.987291 0.357504
vt 0.988182 0.357504
vt 0.988182 0.376888
vt 0.987291 0.376888
vt 0.988182 0.396272
vt 0.987291 0.396272
vt 0.988182 0.415656
vt 0.987291 0.415656
vt 0.988182 0.435040
vt 0.987291 0.435040
vt 0.988182 0.454424
vt 0.987291 0.454424
vt 0.988182 0.473808
vt 0.987291 0.473808
vt 0.988182 0.493192
vt 0.987291 0.493192
vt 0.987291 0.008585
vt 0.988182 0.008585
vt 0.988182 0.027970
vt 0.987290 0.027970
vt 0.988181 0.047354
vt 0.987290 0.047354
vt 0.988181 0.066739
vt 0.987290 0.066739
vt 0.988181 0.086123
vt 0.987290 0.086123
vt 0.988181 0.105508
vt 0.987290 0.105508
vt 0.988181 0.124892
vt 0.987290 0.124892
vt 0.988181 0.144277
vt 0.987290 0.144277
vt 0.988181 0.163661
vt 0.987290 0.163661
vt 0.988181 0.183045
vt 0.987290 0.183045
vt 0.988181 0.202430
vt 0.987290 0.202430
vt 0.988181 0.221814
vt 0.987290 0.221814
vt 0.988181 0.241199
vt 0.987290 0.241199
vt 0.988181 0.260583
vt 0.987290 0.260583
vt 0.988181 0.279967
vt 0.987290 0.279967
vt 0.735089 0.761663
vt 0.754130 0.758031
vt 0.773476 0.759248
vt 0.791911 0.765238
vt 0.808278 0.775624
vt 0.821548 0.789755
vt 0.830886 0.806741
vt 0.835707 0.825517
vt 0.835707 0.844901
vt 0.830886 0.863676
vt 0.821548 0.880663
vt 0.808278 0.894793
vt 0.791912 0.905180
vt 0.773476 0.911170
vt 0.754130 0.912387
vt 0.735089 0.908755
vt 0.717549 0.900501
vt 0.702614 0.888145
vt 0.691220 0.872463
vt 0.684084 0.854440
vt 0.681655 0.835209
vt 0.684084 0.815977
vt 0.691220 0.797954
vt 0.702614 0.782272
vt 0.717550 0.769916
vt 0.988182 0.338120
vt 0.987291 0.338120
vt 0.546327 0.769916
vt 0.563867 0.761663
vt 0.582908 0.758031
vt 0.602254 0.759248
vt 0.620689 0.765238
vt 0.637056 0.775624
vt 0.650325 0.789755
vt 0.659664 0.806741
vt 0.664485 0.825517
vt 0.664485 0.844901
vt 0.659664 0.863676
vt 0.650325 0.880663
vt 0.637056 0.894793
vt 0.620689 0.905180
vt 0.602254 0.911170
vt 0.582908 0.912387
vt 0.563867 0.908755
vt 0.546327 0.900502
vt 0.531392 0.888146
vt 0.519998 0.872463
vt 0.512862 0.854440
vt 0.510432 0.835209
vt 0.512862 0.815977
vt 0.519998 0.797954
vt 0.531392 0.782272
vt 0.990523 0.279967
vt 0.991415 0.279967
vt 0.991415 0.299351
vt 0.990524 0.299351
vt 0.990523 0.260583
vt 0.991414 0.260583
vt 0.990523 0.241199
vt 0.991414 0.241199
vt 0.990523 0.221814
vt 0.991414 0.221814
vt 0.990523 0.202430
vt 0.991414 0.202430
vt 0.990523 0.183045
vt 0.991414 0.183045
vt 0.990523 0.163661
vt 0.991414 0.163661
vt 0.990523 0.144277
vt 0.991414 0.144277
vt 0.990523 0.124892
vt 0.991414 0.124892
vt 0.990523 0.105508
vt 0.991414 0.105508
vt 0.990523 0.086123
vt 0.991414 0.086123
vt 0.990523 0.066739
vt 0.991414 0.066739
vt 0.990523 0.047354
vt 0.991415 0.047354
vt 0.990524 0.027970
vt 0.991415 0.027970
vt 0.990524 0.008585
vt 0.991415 0.008585
vt 0.990524 0.473808
vt 0.991415 0.473808
vt 0.991415 0.493192
vt 0.990524 0.493192
vt 0.990524 0.454424
vt 0.991415 0.454424
vt 0.990524 0.435040
vt 0.991415 0.435040
vt 0.990524 0.415656
vt 0.991415 0.415656
vt 0.990524 0.396272
vt 0.991415 0.396272
vt 0.990524 0.376888
vt 0.991415 0.376888
vt 0.990524 0.357504
vt 0.991415 0.357504
vt 0.990524 0.338120
vt 0.991415 0.338120
vt 0.990524 0.318735
vt 0.991415 0.318735
vt 0.989353 0.318735
vt 0.989353 0.299351
vt 0.989352 0.279967
vt 0.989352 0.260583
vt 0.989352 0.241199
vt 0.989352 0.221814
vt 0.989352 0.202430
vt 0.989352 0.183045
vt 0.989352 0.163661
vt 0.989352 0.144277
vt 0.989352 0.124892
vt 0.989352 0.105508
vt 0.989352 0.086123
vt 0.989352 0.066739
vt 0.989352 0.047354
vt 0.989353 0.027970
vt 0.989353 0.008686
vt 0.989353 0.493090
vt 0.989353 0.473808
vt 0.989353 0.454424
vt 0.989353 0.435040
vt 0.989353 0.415656
vt 0.989353 0.396272
vt 0.989353 0.376888
vt 0.989353 0.357504
vt 0.989353 0.338120
vt 0.008585 0.250924
vt 0.008585 0.008585
vt 0.057053 0.008585
vt 0.057053 0.250924
vt 0.105521 0.008585
vt 0.105521 0.250924
vt 0.153988 0.008585
vt 0.153988 0.250924
vt 0.202456 0.008585
vt 0.202456 0.250924
vt 0.250924 0.008585
vt 0.250924 0.250924
vt 0.299391 0.008585
vt 0.299391 0.250924
vt 0.347859 0.008585
vt 0.347859 0.250924
vt 0.396327 0.008585
vt 0.396327 0.250924
vt 0.552689 0.718645
vt 0.510432 0.660484
vt 0.510432 0.588592
vt 0.552689 0.530431
vt 0.621062 0.508215
vt 0.689434 0.530431
vt 0.731691 0.588592
vt 0.731691 0.660484
vt 0.689434 0.718645
vt 0.621062 0.740860
vt 0.444795 0.008585
vt 0.444795 0.250924
vt 0.493262 0.008585
vt 0.493262 0.250924
vt 0.689434 0.219014
vt 0.731691 0.160853
vt 0.731691 0.088962
vt 0.689434 0.030801
vt 0.621062 0.008585
vt 0.552689 0.030801
vt 0.510432 0.088962
vt 0.510432 0.160853
vt 0.552689 0.219014
vt 0.621062 0.241230
vt 0.008585 0.510432
vt 0.008585 0.268094
vt 0.057053 0.268094
vt 0.057053 0.510432
vt 0.105521 0.268094
vt 0.105521 0.510432
vt 0.153988 0.268094
vt 0.153988 0.510432
vt 0.202456 0.268094
vt 0.202456 0.510432
vt 0.250924 0.268094
vt 0.250924 0.510432
vt 0.299391 0.268094
vt 0.299391 0.510432
vt 0.347859 0.268094
vt 0.347859 0.510432
vt 0.396327 0.268094
vt 0.396327 0.510432
vt 0.552689 0.468830
vt 0.510432 0.410668
vt 0.510432 0.338777
vt 0.552689 0.280616
vt 0.621062 0.258400
vt 0.689434 0.280616
vt 0.731691 0.338777
vt 0.731691 0.410668
vt 0.689434 0.468830
vt 0.621062 0.491045
vt 0.444795 0.268094
vt 0.444795 0.510432
vt 0.493262 0.268094
vt 0.493262 0.510432
vt 0.791118 0.718645
vt 0.859490 0.740860
vt 0.927863 0.718645
vt 0.970120 0.660483
vt 0.970120 0.588592
vt 0.927863 0.530431
vt 0.859490 0.508215
vt 0.791118 0.530431
vt 0.748861 0.588592
vt 0.748861 0.660484
vt 0.008585 0.769941
vt 0.008585 0.527603
vt 0.057053 0.527603
vt 0.057053 0.769941
vt 0.105521 0.527603
vt 0.105521 0.769941
vt 0.153988 0.527603
vt 0.153988 0.769941
vt 0.202456 0.527603
vt 0.202456 0.769941
vt 0.250924 0.527603
vt 0.250924 0.769941
vt 0.299391 0.527603
vt 0.299391 0.769941
vt 0.347859 0.527603
vt 0.347859 0.769941
vt 0.396327 0.527603
vt 0.396327 0.769941
vt 0.748861 0.160853
vt 0.748861 0.088962
vt 0.791118 0.030801
vt 0.859490 0.008585
vt 0.927863 0.030801
vt 0.970120 0.088962
vt 0.970120 0.160853
vt 0.927863 0.219014
vt 0.859491 0.241230
vt 0.791118 0.219014
vt 0.444795 0.527603
vt 0.444795 0.769941
vt 0.493262 0.527603
vt 0.493262 0.769941
vt 0.791118 0.468830
vt 0.859490 0.491045
vt 0.927863 0.468830
vt 0.970120 0.410668
vt 0.970120 0.338777
vt 0.927863 0.280616
vt 0.859490 0.258400
vt 0.791118 0.280616
vt 0.748861 0.338777
vt 0.748861 0.410668
vn -0.0902 -0.6954 -0.7129
vn 0.4231 -0.6952 -0.5811
vn 0.5544 -0.6950 -0.4578
vn 0.6509 -0.6949 -0.3057
vn 0.7066 -0.6947 -0.1345
vn 0.7179 -0.6947 0.0451
vn 0.6841 -0.6948 0.2219
vn 0.6075 -0.6949 0.3848
vn 0.4926 -0.6951 0.5236
vn 0.3468 -0.6953 0.6296
vn 0.1790 -0.6954 0.6960
vn -0.0000 -0.6954 0.7186
vn -0.1790 -0.6954 0.6960
vn -0.3468 -0.6953 0.6296
vn -0.4926 -0.6951 0.5236
vn -0.6075 -0.6949 0.3848
vn -0.6841 -0.6948 0.2219
vn -0.7179 -0.6947 0.0451
vn -0.7066 -0.6947 -0.1345
vn -0.6509 -0.6949 -0.3057
vn -0.5544 -0.6950 -0.4578
vn -0.4231 -0.6952 -0.5811
vn -0.2650 -0.6953 -0.6680
vn 0.0000 1.0000 0.0000
vn 0.0902 -0.6954 -0.7129
vn 0.0000 -1.0000 0.0000
vn 0.2650 -0.6953 -0.6680
vn -0.2650 0.6953 -0.6680
vn -0.4231 0.6952 -0.5811
vn -0.5544 0.6950 -0.4578
vn -0.6509 0.6949 -0.3057
vn -0.7066 0.6947 -0.1345
vn -0.7179 0.6947 0.0451
vn -0.6841 0.6948 0.2219
vn -0.6075 0.6949 0.3848
vn -0.4926 0.6951 0.5236
vn -0.3468 0.6953 0.6296
vn -0.1790 0.6954 0.6960
vn -0.0000 0.6954 0.7186
vn 0.1790 0.6954 0.6960
vn 0.3468 0.6953 0.6296
vn 0.4926 0.6951 0.5236
vn 0.6075 0.6949 0.3848
vn 0.6841 0.6948 0.2219
vn 0.7179 0.6947 0.0451
vn 0.7066 0.6947 -0.1345
vn 0.6509 0.6949 -0.3057
vn 0.5544 0.6950 -0.4578
vn 0.4231 0.6952 -0.5811
vn 0.2650 0.6953 -0.6680
vn 0.0902 0.6954 -0.7129
vn -0.1166 0.3721 -0.9209
vn -0.1166 -0.3721 -0.9209
vn -0.3423 0.3720 -0.8628
vn -0.3423 -0.3720 -0.8628
vn -0.5463 0.3719 -0.7505
vn -0.5463 -0.3719 -0.7505
vn -0.7159 0.3717 -0.5911
vn -0.7159 -0.3717 -0.5911
vn -0.8403 0.3716 -0.3947
vn -0.8403 -0.3716 -0.3947
vn -0.9121 0.3715 -0.1736
vn -0.9121 -0.3715 -0.1736
vn -0.9266 0.3715 0.0582
vn -0.9266 -0.3715 0.0582
vn -0.8832 0.3715 0.2864
vn -0.8832 -0.3715 0.2864
vn -0.7843 0.3716 0.4968
vn -0.7843 -0.3716 0.4967
vn -0.6361 0.3718 0.6761
vn -0.6361 -0.3718 0.6761
vn -0.4479 0.3719 0.8131
vn -0.4479 -0.3719 0.8131
vn -0.2313 0.3721 0.8989
vn -0.2313 -0.3720 0.8989
vn -0.0000 0.3721 0.9282
vn -0.0000 -0.3721 0.9282
vn 0.2313 0.3720 0.8989
vn 0.2313 -0.3720 0.8989
vn 0.4479 0.3719 0.8131
vn 0.4479 -0.3719 0.8131
vn 0.6361 0.3718 0.6761
vn 0.6361 -0.3718 0.6761
vn 0.7843 0.3716 0.4967
vn 0.7843 -0.3716 0.4967
vn 0.8831 0.3715 0.2864
vn 0.8832 -0.3715 0.2864
vn 0.9266 0.3715 0.0582
vn 0.9266 -0.3715 0.0582
vn 0.9121 0.3715 -0.1736
vn 0.9121 -0.3715 -0.1736
vn 0.8403 0.3716 -0.3947
vn 0.8403 -0.3716 -0.3947
vn 0.7159 0.3717 -0.5911
vn 0.7159 -0.3717 -0.5911
vn 0.5463 0.3719 -0.7505
vn 0.5463 -0.3719 -0.7505
vn 0.3423 0.3720 -0.8628
vn 0.3423 -0.3720 -0.8628
vn 0.1166 0.3721 -0.9209
vn 0.1166 -0.3721 -0.9209
vn -0.0902 0.6954 -0.7129
vn -0.2751 0.0800 -0.9581
vn 0.3281 0.2094 -0.9212
vn 0.8060 0.2588 -0.5324
vn 0.9760 0.2094 0.0597
vn 0.7732 0.0800 0.6290
vn 0.2751 -0.0800 0.9581
vn -0.3281 -0.2094 0.9212
vn -0.8060 -0.2588 0.5324
vn -0.2160 0.9659 0.1427
vn -0.9760 -0.2094 -0.0597
vn -0.7732 -0.0800 -0.6290
vn 0.2160 -0.9659 -0.1427
vn 0.9511 0.0800 0.2984
vn 0.5879 0.2094 0.7814
vn 0.0001 0.2588 0.9659
vn -0.5877 0.2094 0.7815
vn -0.9510 0.0800 0.2986
vn -0.9511 -0.0800 -0.2984
vn -0.5879 -0.2094 -0.7814
vn -0.0001 -0.2588 -0.9659
vn -0.0000 0.9659 -0.2588
vn 0.5877 -0.2094 -0.7815
vn 0.9510 -0.0800 -0.2986
vn 0.0000 -0.9659 0.2588
vn -0.7809 0.0800 0.6195
vn -0.9767 0.2094 0.0478
vn -0.7994 0.2588 -0.5422
vn -0.3168 0.2094 -0.9251
vn 0.2868 0.0800 -0.9546
vn 0.7809 -0.0800 -0.6195
vn 0.9767 -0.2094 -0.0478
vn 0.7994 -0.2588 0.5422
vn 0.2142 0.9659 0.1453
vn 0.3168 -0.2094 0.9251
vn -0.2868 -0.0800 0.9546
vn -0.2142 -0.9659 -0.1453
usemtl AO
s off
f 49/1/1 123/2/1 52/3/1 1/4/1
f 5/5/2 57/6/2 60/7/2 7/8/2
f 7/8/3 60/7/3 63/9/3 9/10/3
f 9/10/4 63/9/4 66/11/4 11/12/4
f 11/12/5 66/11/5 69/13/5 13/14/5
f 13/14/6 69/13/6 72/15/6 15/16/6
f 15/16/7 72/15/7 75/17/7 17/18/7
f 17/18/8 75/17/8 78/19/8 19/20/8
f 19/21/9 78/22/9 81/23/9 21/24/9
f 21/24/10 81/23/10 84/25/10 23/26/10
f 23/26/11 84/25/11 87/27/11 25/28/11
f 25/28/12 87/27/12 90/29/12 27/30/12
f 27/30/13 90/29/13 93/31/13 29/32/13
f 29/32/14 93/31/14 96/33/14 31/34/14
f 31/34/15 96/33/15 99/35/15 33/36/15
f 33/36/16 99/35/16 102/37/16 35/38/16
f 35/38/17 102/37/17 105/39/17 37/40/17
f 37/40/18 105/39/18 108/41/18 39/42/18
f 39/42/19 108/41/19 111/43/19 41/44/19
f 41/44/20 111/43/20 114/45/20 43/46/20
f 43/46/21 114/45/21 117/47/21 45/48/21
f 45/48/22 117/47/22 120/49/22 47/50/22
f 47/50/23 120/49/23 123/2/23 49/1/23
f 4/51/24 2/52/24 50/53/24 48/54/24 46/55/24 44/56/24 42/57/24 40/58/24 38/59/24 36/60/24 34/61/24 32/62/24 30/63/24 28/64/24 26/65/24 24/66/24 22/67/24 20/68/24 18/69/24 16/70/24 14/71/24 12/72/24 10/73/24 8/74/24 6/75/24
f 1/4/25 52/3/25 54/76/25 3/77/25
f 1/78/26 3/79/26 5/80/26 7/81/26 9/82/26 11/83/26 13/84/26 15/85/26 17/86/26 19/87/26 21/88/26 23/89/26 25/90/26 27/91/26 29/92/26 31/93/26 33/94/26 35/95/26 37/96/26 39/97/26 41/98/26 43/99/26 45/100/26 47/101/26 49/102/26
f 3/77/27 54/76/27 57/6/27 5/5/27
f 121/103/28 48/104/28 50/105/28 124/106/28
f 118/107/29 46/108/29 48/104/29 121/103/29
f 115/109/30 44/110/30 46/108/30 118/107/30
f 112/111/31 42/112/31 44/110/31 115/109/31
f 109/113/32 40/114/32 42/112/32 112/111/32
f 106/115/33 38/116/33 40/114/33 109/113/33
f 103/117/34 36/118/34 38/116/34 106/115/34
f 100/119/35 34/120/35 36/118/35 103/117/35
f 97/121/36 32/122/36 34/120/36 100/119/36
f 94/123/37 30/124/37 32/122/37 97/121/37
f 91/125/38 28/126/38 30/124/38 94/123/38
f 88/127/39 26/128/39 28/126/39 91/125/39
f 85/129/40 24/130/40 26/128/40 88/127/40
f 82/131/41 22/132/41 24/130/41 85/129/41
f 79/133/42 20/134/42 22/132/42 82/131/42
f 76/135/43 18/136/43 20/137/43 79/138/43
f 73/139/44 16/140/44 18/136/44 76/135/44
f 70/141/45 14/142/45 16/140/45 73/139/45
f 67/143/46 12/144/46 14/142/46 70/141/46
f 64/145/47 10/146/47 12/144/47 67/143/47
f 61/147/48 8/148/48 10/146/48 64/145/48
f 58/149/49 6/150/49 8/148/49 61/147/49
f 55/151/50 4/152/50 6/150/50 58/149/50
f 51/153/51 2/154/51 4/152/51 55/151/51
f 124/106/52 51/153/52 53/155/52 125/156/52
f 125/156/53 53/155/53 52/3/53 123/2/53
f 121/103/54 124/106/54 125/156/54 122/157/54
f 122/157/55 125/156/55 123/2/55 120/49/55
f 118/107/56 121/103/56 122/157/56 119/158/56
f 119/158/57 122/157/57 120/49/57 117/47/57
f 115/109/58 118/107/58 119/158/58 116/159/58
f 116/159/59 119/158/59 117/47/59 114/45/59
f 112/111/60 115/109/60 116/159/60 113/160/60
f 113/160/61 116/159/61 114/45/61 111/43/61
f 109/113/62 112/111/62 113/160/62 110/161/62
f 110/161/63 113/160/63 111/43/63 108/41/63
f 106/115/64 109/113/64 110/161/64 107/162/64
f 107/162/65 110/161/65 108/41/65 105/39/65
f 103/117/66 106/115/66 107/162/66 104/163/66
f 104/163/67 107/162/67 105/39/67 102/37/67
f 100/119/68 103/117/68 104/163/68 101/164/68
f 101/164/69 104/163/69 102/37/69 99/35/69
f 97/121/70 100/119/70 101/164/70 98/165/70
f 98/165/71 101/164/71 99/35/71 96/33/71
f 94/123/72 97/121/72 98/165/72 95/166/72
f 95/166/73 98/165/73 96/33/73 93/31/73
f 91/125/74 94/123/74 95/166/74 92/167/74
f 92/167/75 95/166/75 93/31/75 90/29/75
f 88/127/76 91/125/76 92/167/76 89/168/76
f 89/168/77 92/167/77 90/29/77 87/27/77
f 85/129/78 88/127/78 89/168/78 86/169/78
f 86/169/79 89/168/79 87/27/79 84/25/79
f 82/131/80 85/129/80 86/169/80 83/170/80
f 83/170/81 86/169/81 84/25/81 81/23/81
f 79/133/82 82/131/82 83/170/82 80/171/82
f 80/171/83 83/170/83 81/23/83 78/22/83
f 76/135/84 79/138/84 80/172/84 77/173/84
f 77/173/85 80/172/85 78/19/85 75/17/85
f 73/139/86 76/135/86 77/173/86 74/174/86
f 74/174/87 77/173/87 75/17/87 72/15/87
f 70/141/88 73/139/88 74/174/88 71/175/88
f 71/175/89 74/174/89 72/15/89 69/13/89
f 67/143/90 70/141/90 71/175/90 68/176/90
f 68/176/91 71/175/91 69/13/91 66/11/91
f 64/145/92 67/143/92 68/176/92 65/177/92
f 65/177/93 68/176/93 66/11/93 63/9/93
f 61/147/94 64/145/94 65/177/94 62/178/94
f 62/178/95 65/177/95 63/9/95 60/7/95
f 58/149/96 61/147/96 62/178/96 59/179/96
f 59/179/97 62/178/97 60/7/97 57/6/97
f 55/151/98 58/149/98 59/179/98 56/180/98
f 56/180/99 59/179/99 57/6/99 54/76/99
f 51/153/100 55/151/100 56/180/100 53/155/100
f 53/155/101 56/180/101 54/76/101 52/3/101
f 124/106/102 50/105/102 2/154/102 51/153/102
f 126/181/103 127/182/103 129/183/103 128/184/103
f 128/184/104 129/183/104 131/185/104 130/186/104
f 130/186/105 131/185/105 133/187/105 132/188/105
f 132/188/106 133/187/106 135/189/106 134/190/106
f 134/190/107 135/189/107 137/191/107 136/192/107
f 136/192/108 137/191/108 139/193/108 138/194/108
f 138/194/109 139/193/109 141/195/109 140/196/109
f 140/196/110 141/195/110 143/197/110 142/198/110
f 129/199/111 127/200/111 145/201/111 143/202/111 141/203/111 139/204/111 137/205/111 135/206/111 133/207/111 131/208/111
f 142/198/112 143/197/112 145/209/112 144/210/112
f 144/210/113 145/209/113 127/211/113 126/212/113
f 126/213/114 128/214/114 130/215/114 132/216/114 134/217/114 136/218/114 138/219/114 140/220/114 142/221/114 144/222/114
f 146/223/115 147/224/115 149/225/115 148/226/115
f 148/226/116 149/225/116 151/227/116 150/228/116
f 150/228/117 151/227/117 153/229/117 152/230/117
f 152/230/118 153/229/118 155/231/118 154/232/118
f 154/232/119 155/231/119 157/233/119 156/234/119
f 156/234/120 157/233/120 159/235/120 158/236/120
f 158/236/121 159/235/121 161/237/121 160/238/121
f 160/238/122 161/237/122 163/239/122 162/240/122
f 149/241/123 147/242/123 165/243/123 163/244/123 161/245/123 159/246/123 157/247/123 155/248/123 153/249/123 151/250/123
f 162/240/124 163/239/124 165/251/124 164/252/124
f 164/252/125 165/251/125 147/253/125 146/254/125
f 146/255/126 148/256/126 150/257/126 152/258/126 154/259/126 156/260/126 158/261/126 160/262/126 162/263/126 164/264/126
f 166/265/127 167/266/127 169/267/127 168/268/127
f 168/268/128 169/267/128 171/269/128 170/270/128
f 170/270/129 171/269/129 173/271/129 172/272/129
f 172/272/130 173/271/130 175/273/130 174/274/130
f 174/274/131 175/273/131 177/275/131 176/276/131
f 176/276/132 177/275/132 179/277/132 178/278/132
f 178/278/133 179/277/133 181/279/133 180/280/133
f 180/280/134 181/279/134 183/281/134 182/282/134
f 169/283/135 167/284/135 185/285/135 183/286/135 181/287/135 179/288/135 177/289/135 175/290/135 173/291/135 171/292/135
f 182/282/136 183/281/136 185/293/136 184/294/136
f 184/294/137 185/293/137 167/295/137 166/296/137
f 166/297/138 168/298/138 170/299/138 172/300/138 174/301/138 176/302/138 178/303/138 180/304/138 182/305/138 184/306/138
