# Blender v2.81 (sub 16) OBJ File: 'NormalScreen.blend'
# www.blender.org
mtllib NormalScreen_Bottom.mtl
v 0.035688 0.000000 -0.016224
v 0.033905 0.010003 -0.016224
v 0.013717 0.000000 -0.060220
v 0.014348 0.010006 -0.058223
v 0.013786 0.000000 -0.016255
v 0.069501 0.003988 -0.120122
v 0.078097 0.007490 -0.107036
v 0.069360 0.000000 -0.120062
v 0.079150 0.000000 -0.105871
v 0.081178 0.000000 -0.130369
v 0.086232 0.000000 -0.122170
v 0.085084 0.000000 -0.130966
v 0.086934 0.000000 -0.127965
v 0.086392 0.003842 -0.122084
v 0.081198 0.003578 -0.130278
v 0.085404 0.006825 -0.127244
v 0.084521 0.006863 -0.128676
v 0.035688 0.006790 -0.016224
v 0.079290 0.004291 -0.105798
v 0.013717 0.006790 -0.060220
v 0.070288 0.007229 -0.118292
v 0.086934 0.003569 -0.127965
v 0.085000 0.007043 -0.122866
v 0.085084 0.003569 -0.130966
v 0.081665 0.006849 -0.128170
v 0.008759 0.030000 -0.010414
v 0.013172 0.010000 -0.015695
v -0.035688 0.000000 -0.016224
v -0.033905 0.010003 -0.016224
v -0.013717 0.000000 -0.060220
v 0.000000 0.000000 -0.054650
v -0.014348 0.010006 -0.058223
v 0.000000 0.006790 -0.054650
v -0.013786 0.000000 -0.016255
v 0.000000 0.000000 -0.016255
v -0.069501 0.003988 -0.120122
v -0.078097 0.007490 -0.107036
v -0.069360 0.000000 -0.120062
v -0.079150 0.000000 -0.105871
v -0.081178 0.000000 -0.130369
v -0.086232 0.000000 -0.122170
v -0.085084 0.000000 -0.130966
v -0.086934 0.000000 -0.127965
v -0.086392 0.003842 -0.122084
v -0.081198 0.003578 -0.130278
v -0.085404 0.006825 -0.127244
v -0.084521 0.006863 -0.128676
v -0.035688 0.006790 -0.016224
v -0.079290 0.004291 -0.105798
v -0.013717 0.006790 -0.060220
v 0.000000 0.010000 -0.052406
v -0.070288 0.007229 -0.118292
v -0.086934 0.003569 -0.127965
v -0.085000 0.007043 -0.122866
v -0.085084 0.003569 -0.130966
v -0.081665 0.006849 -0.128170
v -0.008759 0.030000 -0.010414
v 0.000000 0.030000 -0.012499
v -0.013172 0.010000 -0.015695
v 0.000000 0.010000 -0.019703
v 0.035688 0.000000 0.016224
v 0.032615 0.000000 0.000000
v 0.033905 0.010003 0.016224
v 0.032615 0.006790 0.000000
v 0.013717 0.000000 0.060220
v 0.014348 0.010006 0.058223
v 0.013786 0.000000 0.016255
v 0.069501 0.003988 0.120122
v 0.078097 0.007490 0.107036
v 0.013809 0.000000 0.000000
v 0.069360 0.000000 0.120062
v 0.079150 0.000000 0.105871
v 0.081178 0.000000 0.130369
v 0.086232 0.000000 0.122170
v 0.085084 0.000000 0.130966
v 0.086934 0.000000 0.127965
v 0.086392 0.003842 0.122084
v 0.081198 0.003578 0.130278
v 0.085404 0.006825 0.127244
v 0.084521 0.006863 0.128676
v 0.035688 0.006790 0.016224
v 0.031071 0.010000 0.000000
v 0.079290 0.004291 0.105798
v 0.013717 0.006790 0.060220
v 0.070288 0.007229 0.118292
v 0.086934 0.003569 0.127965
v 0.085000 0.007043 0.122866
v 0.085084 0.003569 0.130966
v 0.081665 0.006849 0.128170
v 0.010203 0.030000 0.000000
v 0.008759 0.030000 0.010414
v 0.013172 0.010000 0.015695
v 0.015979 0.010000 0.000000
v -0.035688 0.000000 0.016224
v -0.032615 0.000000 0.000000
v -0.033905 0.010003 0.016224
v -0.032615 0.006790 0.000000
v -0.013717 0.000000 0.060220
v 0.000000 0.000000 0.054650
v -0.014348 0.010006 0.058223
v 0.000000 0.006790 0.054650
v -0.013786 0.000000 0.016255
v 0.000000 0.000000 0.016255
v -0.069501 0.003988 0.120122
v -0.078097 0.007490 0.107036
v -0.013809 0.000000 0.000000
v 0.000000 0.000000 0.000000
v -0.069360 0.000000 0.120062
v -0.079150 0.000000 0.105871
v -0.081178 0.000000 0.130369
v -0.086232 0.000000 0.122170
v -0.085084 0.000000 0.130966
v -0.086934 0.000000 0.127965
v -0.086392 0.003842 0.122084
v -0.081198 0.003578 0.130278
v -0.085404 0.006825 0.127244
v -0.084521 0.006863 0.128676
v -0.035688 0.006790 0.016224
v -0.031071 0.010000 0.000000
v -0.079290 0.004291 0.105798
v -0.013717 0.006790 0.060220
v 0.000000 0.010000 0.052406
v -0.070288 0.007229 0.118292
v -0.086934 0.003569 0.127965
v -0.085000 0.007043 0.122866
v -0.085084 0.003569 0.130966
v -0.081665 0.006849 0.128170
v 0.000000 0.030000 0.000000
v -0.010203 0.030000 0.000000
v -0.008759 0.030000 0.010414
v 0.000000 0.030000 0.012499
v -0.013172 0.010000 0.015695
v 0.000000 0.010000 0.019703
v -0.015979 0.010000 0.000000
vt 0.989152 0.626738
vt 0.998828 0.613794
vt 1.000000 0.624477
vt 0.997438 0.627972
vt 0.850587 0.353574
vt 0.978801 0.575167
vt 0.956146 0.602633
vt 0.793847 0.456058
vt 0.346845 0.319573
vt 0.292283 0.319573
vt 0.292218 0.279910
vt 0.355760 0.279986
vt 0.292015 0.172629
vt 0.453452 0.026607
vt 0.481857 0.061233
vt 0.296745 0.753545
vt 0.364516 0.753545
vt 0.364325 0.758270
vt 0.296745 0.761021
vt 0.752220 0.441863
vt 0.752220 0.362063
vt 0.790437 0.352284
vt 0.250790 0.761021
vt 0.250790 0.753545
vt 0.444684 0.761021
vt 0.444684 0.753545
vt 0.496098 0.753545
vt 0.496098 0.761021
vt 0.378770 0.753545
vt 0.384590 0.753545
vt 0.384471 0.757937
vt 0.378696 0.757484
vt 0.252220 0.319573
vt 0.252220 0.279910
vt 0.502403 0.021463
vt 0.487740 0.001456
vt 0.499073 0.000000
vt 0.504440 0.007323
vt 0.252220 0.186219
vt 0.368789 0.757776
vt 0.368988 0.753545
vt 0.371971 0.753545
vt 0.371971 0.757475
vt 0.375461 0.753545
vt 0.375461 0.757475
vt 0.562764 0.838423
vt 0.529155 0.965712
vt 0.462872 0.965712
vt 0.462872 0.838422
vt 0.299015 0.764558
vt 0.250790 0.764555
vt 0.366406 0.761791
vt 0.496098 0.764555
vt 0.440804 0.764562
vt 0.382411 0.761505
vt 0.372917 0.761060
vt 0.370554 0.761300
vt 0.374602 0.761101
vt 0.376978 0.761086
vt 0.154241 0.964564
vt 0.098497 0.977831
vt 0.098497 0.898281
vt 0.163434 0.898281
vt 0.798578 0.313986
vt 0.842367 0.313986
vt 0.668610 0.965712
vt 0.612866 0.965712
vt 0.584774 0.838423
vt 0.668610 0.838422
vt 0.515288 0.626738
vt 0.507002 0.627972
vt 0.504440 0.624477
vt 0.505612 0.613794
vt 0.653853 0.353574
vt 0.710593 0.456058
vt 0.548294 0.602634
vt 0.525639 0.575167
vt 0.157595 0.319573
vt 0.148680 0.279986
vt 0.212222 0.279910
vt 0.212156 0.319573
vt 0.212424 0.172629
vt 0.022583 0.061234
vt 0.050988 0.026607
vt 0.695452 0.753545
vt 0.695452 0.761021
vt 0.627872 0.758270
vt 0.627681 0.753545
vt 0.714003 0.352284
vt 0.741407 0.753545
vt 0.741407 0.761021
vt 0.547513 0.761021
vt 0.547513 0.753545
vt 0.613427 0.753545
vt 0.613500 0.757484
vt 0.607725 0.757937
vt 0.607607 0.753545
vt 0.002037 0.021463
vt 0.000000 0.007323
vt 0.005367 0.000000
vt 0.016700 0.001456
vt 0.623408 0.757776
vt 0.620226 0.757475
vt 0.620226 0.753545
vt 0.623209 0.753545
vt 0.616736 0.757475
vt 0.616736 0.753545
vt 0.871279 0.838422
vt 0.871279 0.965712
vt 0.804996 0.965712
vt 0.771387 0.838423
vt 0.693183 0.764558
vt 0.741407 0.764555
vt 0.625791 0.761791
vt 0.551392 0.764562
vt 0.609786 0.761505
vt 0.619280 0.761060
vt 0.621643 0.761300
vt 0.617595 0.761101
vt 0.615219 0.761086
vt 0.042753 0.964564
vt 0.033560 0.898281
vt 0.662073 0.313986
vt 0.705862 0.313986
vt 0.724354 0.965712
vt 0.752446 0.838423
vt 0.989152 0.001234
vt 0.997438 0.000000
vt 1.000000 0.003495
vt 0.998828 0.014178
vt 0.850587 0.274398
vt 0.793847 0.171914
vt 0.956146 0.025338
vt 0.978801 0.052805
vt 0.355760 0.359161
vt 0.292218 0.359237
vt 0.292015 0.466518
vt 0.481857 0.577913
vt 0.453452 0.612540
vt 0.204835 0.753545
vt 0.204835 0.761021
vt 0.137255 0.758270
vt 0.137064 0.753545
vt 0.752220 0.186109
vt 0.790437 0.275688
vt 0.752220 0.265909
vt 0.056896 0.761021
vt 0.005482 0.761021
vt 0.005482 0.753545
vt 0.056896 0.753545
vt 0.122810 0.753545
vt 0.122884 0.757484
vt 0.117109 0.757937
vt 0.116990 0.753545
vt 0.252220 0.359237
vt 0.502403 0.617684
vt 0.504440 0.631824
vt 0.499073 0.639147
vt 0.487740 0.637691
vt 0.252220 0.452928
vt 0.132791 0.757776
vt 0.129609 0.757475
vt 0.129609 0.753545
vt 0.132592 0.753545
vt 0.126119 0.757475
vt 0.126119 0.753545
vt 0.396589 0.965712
vt 0.362980 0.838423
vt 0.202565 0.764558
vt 0.135174 0.761791
vt 0.005482 0.764555
vt 0.056591 0.764562
vt 0.119170 0.761505
vt 0.128663 0.761060
vt 0.131026 0.761300
vt 0.126978 0.761101
vt 0.124602 0.761086
vt 0.154241 0.831998
vt 0.098497 0.818731
vt 0.311191 0.965712
vt 0.255447 0.965712
vt 0.255447 0.838422
vt 0.339283 0.838423
vt 0.515288 0.001234
vt 0.505612 0.014178
vt 0.504440 0.003495
vt 0.507002 0.000000
vt 0.653853 0.274398
vt 0.525638 0.052805
vt 0.548294 0.025339
vt 0.710593 0.171914
vt 0.212222 0.359237
vt 0.148680 0.359161
vt 0.212425 0.466518
vt 0.050988 0.612540
vt 0.022583 0.577913
vt 0.787362 0.753545
vt 0.855133 0.753545
vt 0.854942 0.758270
vt 0.787362 0.761021
vt 0.714003 0.275688
vt 0.935301 0.761021
vt 0.935301 0.753545
vt 0.986715 0.753545
vt 0.986715 0.761021
vt 0.869387 0.753545
vt 0.875207 0.753545
vt 0.875088 0.757937
vt 0.869314 0.757484
vt 0.002037 0.617684
vt 0.016700 0.637691
vt 0.005367 0.639147
vt 0.000000 0.631824
vt 0.859406 0.757776
vt 0.859605 0.753545
vt 0.862588 0.753545
vt 0.862588 0.757475
vt 0.866077 0.753545
vt 0.866077 0.757475
vt 0.971171 0.838423
vt 0.937562 0.965712
vt 0.789631 0.764558
vt 0.857023 0.761791
vt 0.986715 0.764555
vt 0.931422 0.764562
vt 0.873027 0.761505
vt 0.863534 0.761060
vt 0.861171 0.761300
vt 0.865219 0.761101
vt 0.867595 0.761086
vt 0.042753 0.831998
vt 0.199703 0.965712
vt 0.171611 0.838423
vn -0.2354 0.8358 -0.4960
vn 0.5569 0.8232 0.1100
vn 0.5891 0.7951 -0.1438
vn 0.2667 0.8110 -0.5207
vn 0.4670 0.8733 0.1385
vn 0.4952 0.8449 0.2022
vn -0.3441 0.8562 -0.3854
vn -0.2225 0.9038 -0.3657
vn 0.0000 -1.0000 0.0000
vn 0.9493 -0.0072 0.3144
vn 0.9079 -0.0279 0.4183
vn 0.8888 0.2152 0.4045
vn 0.9220 0.2367 0.3066
vn 0.0000 0.9314 -0.3640
vn 0.0000 0.8656 -0.5007
vn 0.3003 0.9128 -0.2767
vn 0.9700 0.2432 0.0000
vn 1.0000 -0.0000 0.0000
vn -0.5483 0.2879 -0.7852
vn -0.5675 0.0030 -0.8234
vn 0.0000 0.0000 -1.0000
vn 0.0000 0.3236 -0.9462
vn -0.4246 0.0157 -0.9052
vn -0.6959 0.0114 -0.7180
vn -0.6627 0.2627 -0.7013
vn -0.4022 0.2765 -0.8728
vn 0.9479 0.2030 0.2455
vn 0.9664 -0.0324 0.2548
vn 0.9752 -0.0119 -0.2210
vn 0.9495 0.2141 -0.2295
vn 0.4146 0.0079 -0.9100
vn 0.3862 0.2800 -0.8789
vn 0.5239 0.7220 -0.4520
vn 0.6366 0.7712 0.0000
vn 0.5593 0.8290 -0.0000
vn 0.4760 0.8794 -0.0000
vn 0.0000 0.7756 -0.6312
vn 0.0000 1.0000 0.0000
vn 0.2354 0.8358 -0.4960
vn -0.2667 0.8110 -0.5207
vn -0.5891 0.7951 -0.1438
vn -0.5569 0.8232 0.1100
vn -0.4670 0.8733 0.1385
vn 0.2225 0.9038 -0.3657
vn 0.3441 0.8562 -0.3854
vn -0.4952 0.8449 0.2022
vn -0.9493 -0.0072 0.3144
vn -0.9220 0.2367 0.3066
vn -0.8888 0.2152 0.4045
vn -0.9079 -0.0279 0.4183
vn -0.3003 0.9128 -0.2767
vn -1.0000 -0.0000 0.0000
vn -0.9700 0.2432 0.0000
vn 0.5483 0.2879 -0.7852
vn 0.5675 0.0030 -0.8234
vn 0.4246 0.0157 -0.9052
vn 0.4022 0.2765 -0.8728
vn 0.6627 0.2627 -0.7013
vn 0.6959 0.0114 -0.7180
vn -0.9479 0.2030 0.2455
vn -0.9495 0.2141 -0.2295
vn -0.9752 -0.0119 -0.2210
vn -0.9664 -0.0324 0.2548
vn -0.3862 0.2800 -0.8789
vn -0.4146 0.0079 -0.9100
vn -0.5593 0.8290 0.0000
vn -0.6366 0.7712 0.0000
vn -0.5239 0.7220 -0.4520
vn -0.4760 0.8794 0.0000
vn -0.2354 0.8358 0.4960
vn 0.2667 0.8110 0.5207
vn 0.5891 0.7951 0.1438
vn 0.5569 0.8232 -0.1100
vn 0.4670 0.8733 -0.1385
vn -0.2225 0.9038 0.3657
vn -0.3441 0.8562 0.3854
vn 0.4952 0.8449 -0.2022
vn 0.9493 -0.0072 -0.3144
vn 0.9220 0.2367 -0.3066
vn 0.8888 0.2152 -0.4045
vn 0.9079 -0.0279 -0.4183
vn -0.0000 0.9314 0.3640
vn 0.3003 0.9128 0.2767
vn -0.0000 0.8656 0.5007
vn -0.5483 0.2879 0.7852
vn 0.0000 0.3236 0.9462
vn 0.0000 0.0000 1.0000
vn -0.5675 0.0030 0.8234
vn -0.4246 0.0157 0.9052
vn -0.4022 0.2765 0.8728
vn -0.6627 0.2627 0.7013
vn -0.6959 0.0114 0.7180
vn 0.9479 0.2030 -0.2455
vn 0.9495 0.2141 0.2295
vn 0.9752 -0.0119 0.2210
vn 0.9664 -0.0324 -0.2548
vn 0.3862 0.2800 0.8789
vn 0.4146 0.0079 0.9100
vn 0.5239 0.7220 0.4520
vn 0.0000 0.7756 0.6312
vn 0.2354 0.8358 0.4960
vn -0.5569 0.8232 -0.1100
vn -0.5891 0.7951 0.1438
vn -0.2667 0.8110 0.5207
vn -0.4670 0.8733 -0.1385
vn -0.4952 0.8449 -0.2022
vn 0.3441 0.8562 0.3854
vn 0.2225 0.9038 0.3657
vn -0.9493 -0.0072 -0.3144
vn -0.9079 -0.0279 -0.4183
vn -0.8888 0.2152 -0.4045
vn -0.9220 0.2367 -0.3066
vn -0.3003 0.9128 0.2767
vn 0.5483 0.2879 0.7852
vn 0.5675 0.0030 0.8234
vn 0.4246 0.0157 0.9052
vn 0.6959 0.0114 0.7180
vn 0.6627 0.2627 0.7013
vn 0.4022 0.2765 0.8728
vn -0.9479 0.2030 -0.2455
vn -0.9664 -0.0324 -0.2548
vn -0.9752 -0.0119 0.2210
vn -0.9495 0.2141 0.2295
vn -0.4146 0.0079 0.9100
vn -0.3862 0.2800 0.8789
vn -0.5239 0.7220 0.4520
usemtl Checker
s 1
f 25/1/1 23/2/2 16/3/3 17/4/4
f 2/5/5 7/6/6 21/7/7 4/8/8
f 62/9/9 70/10/9 5/11/9 1/12/9
f 3/13/9 8/14/9 9/15/9 1/12/9
f 1/16/10 9/17/11 19/18/12 18/19/13
f 51/20/14 60/21/15 27/22/16 4/8/8
f 1/16/10 18/19/13 64/23/17 62/24/18
f 20/25/19 3/26/20 31/27/21 33/28/22
f 10/29/23 8/30/24 6/31/25 15/32/26
f 5/11/9 70/10/9 107/33/9 35/34/9
f 11/35/9 10/36/9 12/37/9 13/38/9
f 3/13/9 5/11/9 35/34/9 31/39/9
f 21/7/7 7/6/6 23/2/2 25/1/1
f 6/31/25 8/30/24 3/26/20 20/25/19
f 27/22/16 2/5/5 4/8/8
f 14/40/27 11/41/28 13/42/29 22/43/30
f 22/43/30 13/42/29 12/44/31 24/45/32
f 24/45/32 12/44/31 10/29/23 15/32/26
f 19/18/12 9/17/11 11/41/28 14/40/27
f 9/15/9 8/14/9 10/36/9 11/35/9
f 27/46/16 26/47/33 90/48/34 93/49/35
f 5/11/9 3/13/9 1/12/9
f 2/50/5 82/51/36 64/23/17 18/19/13
f 7/52/6 2/50/5 18/19/13 19/18/12
f 51/53/14 4/54/8 20/25/19 33/28/22
f 4/54/8 21/55/7 6/31/25 20/25/19
f 16/56/3 23/57/2 14/40/27 22/43/30
f 17/58/4 16/56/3 22/43/30 24/45/32
f 25/59/1 17/58/4 24/45/32 15/32/26
f 23/57/2 7/52/6 19/18/12 14/40/27
f 21/55/7 25/59/1 15/32/26 6/31/25
f 26/60/33 58/61/37 128/62/38 90/63/34
f 2/5/5 27/22/16 93/64/35 82/65/36
f 58/66/37 26/67/33 27/68/16 60/69/15
f 56/70/39 47/71/40 46/72/41 54/73/42
f 29/74/43 32/75/44 52/76/45 37/77/46
f 95/78/9 28/79/9 34/80/9 106/81/9
f 30/82/9 28/79/9 39/83/9 38/84/9
f 28/85/47 48/86/48 49/87/49 39/88/50
f 51/20/14 32/75/44 59/89/51 60/21/15
f 28/85/47 95/90/52 97/91/53 48/86/48
f 50/92/54 33/28/22 31/27/21 30/93/55
f 40/94/56 45/95/57 36/96/58 38/97/59
f 34/80/9 35/34/9 107/33/9 106/81/9
f 41/98/9 43/99/9 42/100/9 40/101/9
f 30/82/9 31/39/9 35/34/9 34/80/9
f 52/76/45 56/70/39 54/73/42 37/77/46
f 36/96/58 50/92/54 30/93/55 38/97/59
f 59/89/51 32/75/44 29/74/43
f 44/102/60 53/103/61 43/104/62 41/105/63
f 53/103/61 55/106/64 42/107/65 43/104/62
f 55/106/64 45/95/57 40/94/56 42/107/65
f 49/87/49 44/102/60 41/105/63 39/88/50
f 39/83/9 41/98/9 40/101/9 38/84/9
f 134/108/66 129/109/67 57/110/68 59/111/51
f 34/80/9 28/79/9 30/82/9
f 29/112/43 48/86/48 97/91/53 119/113/69
f 37/114/46 49/87/49 48/86/48 29/112/43
f 51/53/14 33/28/22 50/92/54 32/115/44
f 32/115/44 50/92/54 36/96/58 52/116/45
f 46/117/41 53/103/61 44/102/60 54/118/42
f 47/119/40 55/106/64 53/103/61 46/117/41
f 56/120/39 45/95/57 55/106/64 47/119/40
f 54/118/42 44/102/60 49/87/49 37/114/46
f 52/116/45 36/96/58 45/95/57 56/120/39
f 57/121/68 129/122/67 128/62/38 58/61/37
f 29/74/43 119/123/69 134/124/66 59/89/51
f 57/125/68 58/66/37 60/69/15 59/126/51
f 89/127/70 80/128/71 79/129/72 87/130/73
f 63/131/74 66/132/75 85/133/76 69/134/77
f 62/9/9 61/135/9 67/136/9 70/10/9
f 65/137/9 61/135/9 72/138/9 71/139/9
f 61/140/78 81/141/79 83/142/80 72/143/81
f 122/144/82 66/132/75 92/145/83 133/146/84
f 61/140/78 62/24/18 64/23/17 81/141/79
f 84/147/85 101/148/86 99/149/87 65/150/88
f 73/151/89 78/152/90 68/153/91 71/154/92
f 67/136/9 103/155/9 107/33/9 70/10/9
f 74/156/9 76/157/9 75/158/9 73/159/9
f 65/137/9 99/160/9 103/155/9 67/136/9
f 85/133/76 89/127/70 87/130/73 69/134/77
f 68/153/91 84/147/85 65/150/88 71/154/92
f 92/145/83 66/132/75 63/131/74
f 77/161/93 86/162/94 76/163/95 74/164/96
f 86/162/94 88/165/97 75/166/98 76/163/95
f 88/165/97 78/152/90 73/151/89 75/166/98
f 83/142/80 77/161/93 74/164/96 72/143/81
f 72/138/9 74/156/9 73/159/9 71/139/9
f 93/49/35 90/48/34 91/167/99 92/168/83
f 67/136/9 61/135/9 65/137/9
f 63/169/74 81/141/79 64/23/17 82/51/36
f 69/170/77 83/142/80 81/141/79 63/169/74
f 122/171/82 101/148/86 84/147/85 66/172/75
f 66/172/75 84/147/85 68/153/91 85/173/76
f 79/174/72 86/162/94 77/161/93 87/175/73
f 80/176/71 88/165/97 86/162/94 79/174/72
f 89/177/70 78/152/90 88/165/97 80/176/71
f 87/175/73 77/161/93 83/142/80 69/170/77
f 85/173/76 68/153/91 78/152/90 89/177/70
f 91/178/99 90/63/34 128/62/38 131/179/100
f 63/131/74 82/65/36 93/64/35 92/145/83
f 91/180/99 131/181/100 133/182/84 92/183/83
f 127/184/101 125/185/102 116/186/103 117/187/104
f 96/188/105 105/189/106 123/190/107 100/191/108
f 95/78/9 106/81/9 102/192/9 94/193/9
f 98/194/9 108/195/9 109/196/9 94/193/9
f 94/197/109 109/198/110 120/199/111 118/200/112
f 122/144/82 133/146/84 132/201/113 100/191/108
f 94/197/109 118/200/112 97/91/53 95/90/52
f 121/202/114 98/203/115 99/204/87 101/205/86
f 110/206/116 108/207/117 104/208/118 115/209/119
f 102/192/9 106/81/9 107/33/9 103/155/9
f 111/210/9 110/211/9 112/212/9 113/213/9
f 98/194/9 102/192/9 103/155/9 99/160/9
f 123/190/107 105/189/106 125/185/102 127/184/101
f 104/208/118 108/207/117 98/203/115 121/202/114
f 132/201/113 96/188/105 100/191/108
f 114/214/120 111/215/121 113/216/122 124/217/123
f 124/217/123 113/216/122 112/218/124 126/219/125
f 126/219/125 112/218/124 110/206/116 115/209/119
f 120/199/111 109/198/110 111/215/121 114/214/120
f 109/196/9 108/195/9 110/211/9 111/210/9
f 132/220/113 130/221/126 129/109/67 134/108/66
f 102/192/9 98/194/9 94/193/9
f 96/222/105 119/113/69 97/91/53 118/200/112
f 105/223/106 96/222/105 118/200/112 120/199/111
f 122/224/82 100/225/108 121/202/114 101/205/86
f 100/225/108 123/226/107 104/208/118 121/202/114
f 116/227/103 125/228/102 114/214/120 124/217/123
f 117/229/104 116/227/103 124/217/123 126/219/125
f 127/230/101 117/229/104 126/219/125 115/209/119
f 125/228/102 105/223/106 120/199/111 114/214/120
f 123/226/107 127/230/101 115/209/119 104/208/118
f 130/231/126 131/179/100 128/62/38 129/122/67
f 96/188/105 132/201/113 134/124/66 119/123/69
f 131/181/100 130/232/126 132/233/113 133/182/84
