# Blender v2.81 (sub 16) OBJ File: 'MyRoomLayout.blend'
# www.blender.org
mtllib TableBlock.mtl
v -0.300000 -0.000000 -0.600000
v -0.350000 0.000000 -0.600000
v -0.350000 0.000000 -0.000000
v -0.350000 0.700000 -0.000000
v -0.350000 0.700000 -0.600000
v -0.000000 0.000000 0.000000
v 0.000000 0.000000 -0.600000
v 0.000000 0.700000 -0.600000
v -0.000000 0.700000 0.000000
v -0.300000 0.700000 -0.000000
v -0.300000 -0.000000 -0.000000
v -0.300000 0.700000 -0.600000
v -0.050000 0.700000 0.000000
v -0.050000 -0.000000 -0.600000
v -0.050000 -0.000000 0.000000
v -0.050000 0.700000 -0.600000
v -0.350000 0.050000 -0.000000
v -0.350000 0.050000 -0.600000
v -0.000000 0.050000 0.000000
v 0.000000 0.050000 -0.600000
v -0.300000 0.050000 -0.600000
v -0.300000 0.050000 -0.000000
v -0.050000 0.050000 0.000000
v -0.050000 0.050000 -0.600000
v -0.350000 0.650000 -0.000000
v -0.350000 0.650000 -0.600000
v -0.000000 0.650000 0.000000
v 0.000000 0.650000 -0.600000
v -0.300000 0.650000 -0.600000
v -0.300000 0.650000 -0.000000
v -0.050000 0.650000 0.000000
v -0.050000 0.650000 -0.600000
vt 0.382277 0.959758
vt 0.382277 0.990887
vt 0.008736 0.990887
vt 0.008736 0.959758
vt 0.526986 0.777417
vt 0.526986 0.985713
vt 0.509628 0.985713
vt 0.509628 0.777417
vt 0.662417 0.959052
vt 0.662417 0.989994
vt 0.631475 0.989994
vt 0.631475 0.959052
vt 0.967553 0.033183
vt 0.967553 0.009172
vt 0.991565 0.009172
vt 0.991565 0.033183
vt 0.823486 0.033183
vt 0.823486 0.009172
vt 0.847497 0.009172
vt 0.847497 0.033183
vt 0.817129 0.959052
vt 0.817129 0.989994
vt 0.005503 0.006581
vt 0.381775 0.006581
vt 0.381775 0.037937
vt 0.005503 0.037937
vt 0.422838 0.985713
vt 0.422838 0.777417
vt 0.848071 0.959052
vt 0.848071 0.989994
vt 0.847498 0.345329
vt 0.847498 0.321318
vt 0.967553 0.321318
vt 0.967553 0.345329
vt 0.848071 0.556802
vt 0.848071 0.587744
vt 0.817129 0.587744
vt 0.817129 0.556802
vt 0.662417 0.587744
vt 0.662417 0.556802
vt 0.823486 0.345329
vt 0.823486 0.321318
vt 0.991565 0.321318
vt 0.991565 0.345329
vt 0.631475 0.587744
vt 0.631475 0.556802
vt 0.405480 0.985713
vt 0.405480 0.777417
vt 0.990828 0.354313
vt 0.990828 0.670102
vt 0.859249 0.670102
vt 0.859249 0.354313
vt 0.005503 0.414208
vt 0.381775 0.414208
vt 0.381775 0.445564
vt 0.005503 0.445564
vt 0.990828 0.991395
vt 0.859249 0.991395
vt 0.859249 0.675605
vt 0.990828 0.675605
vt 0.317172 0.456616
vt 0.621147 0.456616
vt 0.621147 0.760591
vt 0.317172 0.760591
vt 0.004368 0.456616
vt 0.308343 0.456616
vt 0.308343 0.760591
vt 0.004368 0.760591
vt 0.382277 0.804116
vt 0.008736 0.804116
vt 0.394890 0.037937
vt 0.771161 0.037937
vt 0.771161 0.414208
vt 0.394890 0.414208
vt 0.771161 0.445564
vt 0.394890 0.445564
vt 0.394890 0.006581
vt 0.771161 0.006581
vt 0.008736 0.772988
vt 0.382277 0.772988
vn 0.0000 1.0000 0.0000
vn -0.0000 -1.0000 -0.0000
vn 0.0000 0.0000 1.0000
vn 0.0000 0.0000 -1.0000
vn -1.0000 0.0000 -0.0000
vn 1.0000 0.0000 0.0000
usemtl Bake_AO
s off
f 13/1/1 9/2/1 8/3/1 16/4/1
f 3/5/2 2/6/2 1/7/2 11/8/2
f 30/9/3 10/10/3 4/11/3 25/12/3
f 32/13/4 16/14/4 8/15/4 28/16/4
f 26/17/4 5/18/4 12/19/4 29/20/4
f 31/21/3 13/22/3 10/10/3 30/9/3
f 4/23/5 5/24/5 26/25/5 25/26/5
f 11/8/2 1/7/2 14/27/2 15/28/2
f 27/29/3 9/30/3 13/22/3 31/21/3
f 29/20/4 12/19/4 16/14/4 32/13/4
f 1/31/4 21/32/4 24/33/4 14/34/4
f 6/35/3 19/36/3 23/37/3 15/38/3
f 15/38/3 23/37/3 22/39/3 11/40/3
f 2/41/4 18/42/4 21/32/4 1/31/4
f 14/34/4 24/33/4 20/43/4 7/44/4
f 11/40/3 22/39/3 17/45/3 3/46/3
f 15/28/2 14/27/2 7/47/2 6/48/2
f 30/49/2 29/50/2 32/51/2 31/52/2
f 19/36/3 27/29/3 31/21/3 23/37/3
f 18/42/4 26/17/4 29/20/4 21/32/4
f 24/33/4 32/13/4 28/16/4 20/43/4
f 22/39/3 30/9/3 25/12/3 17/45/3
f 17/53/5 18/54/5 2/55/5 3/56/5
f 22/57/1 23/58/1 24/59/1 21/60/1
f 30/61/6 22/62/6 21/63/6 29/64/6
f 32/65/5 24/66/5 23/67/5 31/68/5
f 10/69/1 13/1/1 16/4/1 12/70/1
f 28/71/6 27/72/6 19/73/6 20/74/6
f 20/74/6 19/73/6 6/75/6 7/76/6
f 25/26/5 26/25/5 18/54/5 17/53/5
f 8/77/6 9/78/6 27/72/6 28/71/6
f 10/69/1 12/70/1 5/79/1 4/80/1
