# Blender v2.81 (sub 16) OBJ File: 'Book.blend'
# www.blender.org
mtllib Book.mtl
v 0.115000 0.030000 -0.095000
v 0.115000 0.000000 -0.095000
v 0.115000 0.030000 0.095000
v 0.115000 0.000000 0.095000
v -0.115000 0.030000 -0.095000
v -0.115000 0.000000 -0.095000
v -0.115000 0.030000 0.095000
v -0.115000 0.000000 0.095000
v -0.119433 0.000000 -0.098662
v -0.119433 0.000000 0.095000
v 0.119433 0.000000 -0.098662
v -0.119433 0.030000 0.095000
v 0.119433 0.030000 0.095000
v 0.119433 0.000000 0.095000
v 0.119405 -0.002761 -0.098685
v 0.119433 0.030000 -0.098662
v 0.119433 -0.002172 0.098876
v -0.119433 0.030000 -0.098662
v -0.119405 -0.002761 -0.098685
v -0.119433 -0.002172 0.098876
v -0.119433 0.032172 0.098876
v 0.119433 0.032172 0.098876
v 0.119405 0.032761 -0.098685
v -0.119405 0.032761 -0.098685
v 0.115000 0.023796 -0.093702
v 0.115000 0.006204 -0.093702
v 0.115000 0.015000 -0.092940
v -0.115000 0.023796 0.095000
v -0.115000 0.006204 0.095000
v -0.115000 0.015000 0.095000
v 0.115000 0.006204 0.095000
v 0.115000 0.023796 0.095000
v 0.115000 0.015000 0.095000
v -0.115000 0.006204 -0.093702
v -0.115000 0.023796 -0.093702
v -0.115000 0.015000 -0.092940
v -0.119433 0.006204 0.095000
v -0.119433 0.023796 0.095000
v -0.119433 0.015000 0.095000
v 0.119433 0.006204 0.095000
v 0.119433 0.023796 0.095000
v 0.119433 0.015000 0.095000
v -0.119433 0.006204 0.098876
v -0.119433 0.023796 0.098876
v -0.119433 0.015000 0.098876
v 0.119433 0.006204 0.098876
v 0.119433 0.023796 0.098876
v 0.119433 0.015000 0.098876
vt 0.402721 0.011286
vt 0.402721 0.503508
vt 0.387335 0.503508
vt 0.387335 0.011286
vt 0.974026 0.876428
vt 0.974026 0.850264
vt 0.991276 0.850264
vt 0.991276 0.876428
vt 0.974026 0.976784
vt 0.974026 0.950620
vt 0.991276 0.950620
vt 0.991276 0.976784
vt 0.454187 0.011286
vt 0.854273 0.011343
vt 0.854273 0.503451
vt 0.454187 0.503508
vt 0.011374 0.503452
vt 0.011374 0.011344
vt 0.437472 0.011286
vt 0.437472 0.503508
vt 0.140448 0.672170
vt 0.972319 0.672171
vt 0.972319 0.654215
vt 0.124416 0.654215
vt 0.854273 0.508820
vt 0.462057 0.508193
vt 0.380153 0.509402
vt 0.011374 0.509402
vt 0.011374 0.006229
vt 0.380153 0.006229
vt 0.461984 0.006229
vt 0.854273 0.006228
vt 0.391332 0.003452
vt 0.402722 0.003452
vt 0.006777 0.503509
vt 0.006777 0.011287
vt 0.859924 0.011286
vt 0.859924 0.503508
vt 0.972320 0.805890
vt 0.140449 0.805890
vt 0.124415 0.823846
vt 0.972320 0.823846
vt 0.139733 0.850264
vt 0.123653 0.833335
vt 0.974026 0.833335
vt 0.972673 0.632685
vt 0.025293 0.632685
vt 0.007034 0.645550
vt 0.990928 0.645550
vt 0.139732 0.976784
vt 0.974026 0.993713
vt 0.123654 0.993713
vt 0.025288 0.532710
vt 0.972668 0.532711
vt 0.990928 0.519845
vt 0.007034 0.519845
vt 0.972319 0.699824
vt 0.988353 0.699823
vt 0.988353 0.672171
vt 0.449944 0.510725
vt 0.437471 0.510725
vt 0.437471 0.003452
vt 0.449944 0.003452
vt 0.402722 0.510725
vt 0.391333 0.510725
vt 0.972319 0.778237
vt 0.988353 0.805890
vt 0.988353 0.778237
vt 0.991276 0.913524
vt 0.974026 0.913524
vt 0.419432 0.503508
vt 0.419432 0.011286
vt 0.419432 0.003452
vt 0.419432 0.510725
vt 0.988353 0.739030
vt 0.972319 0.739030
vt 0.972669 0.553391
vt 0.025289 0.553391
vt 0.145431 0.876429
vt 0.146130 0.778236
vt 0.972672 0.612005
vt 0.025292 0.612004
vt 0.145431 0.950620
vt 0.025291 0.582697
vt 0.972671 0.582698
vt 0.149466 0.739030
vt 0.146130 0.699824
vt 0.148777 0.913524
vn 0.0000 0.0000 1.0000
vn -0.0000 0.0000 -1.0000
vn 0.0000 1.0000 0.0030
vn 0.0000 -1.0000 0.0030
vn 0.0000 1.0000 0.0000
vn -1.0000 0.0057 -0.0001
vn -1.0000 -0.0057 -0.0001
vn 1.0000 -0.0057 -0.0001
vn 1.0000 0.0057 -0.0001
vn 1.0000 0.0000 0.0000
vn 0.0000 0.0083 -1.0000
vn 0.0000 -0.0083 -1.0000
vn 0.0000 -1.0000 0.0000
vn -1.0000 0.0000 0.0000
vn 0.0000 -0.2047 -0.9788
vn 0.0000 0.2047 -0.9788
vn 0.0000 -0.0863 -0.9963
vn 0.0000 0.0863 -0.9963
usemtl Cover
s off
f 46/1/1 43/2/1 20/3/1 17/4/1
f 29/5/2 8/6/2 10/7/2 37/8/2
f 7/9/2 28/10/2 38/11/2 12/12/2
f 22/13/3 23/14/3 24/15/3 21/16/3
f 17/4/4 20/3/4 19/17/4 15/18/4
f 47/19/1 22/13/1 21/16/1 44/20/1
f 2/21/5 4/22/5 14/23/5 11/24/5
f 18/25/6 12/26/6 21/16/6 24/15/6
f 10/27/7 9/28/7 19/17/7 20/3/7
f 11/29/8 14/30/8 17/4/8 15/18/8
f 13/31/9 16/32/9 23/14/9 22/13/9
f 14/33/10 40/34/10 46/1/10 17/4/10
f 9/35/11 11/36/11 15/18/11 19/17/11
f 16/37/12 18/38/12 24/15/12 23/14/12
f 3/39/13 1/40/13 16/41/13 13/42/13
f 8/6/5 6/43/5 9/44/5 10/45/5
f 6/46/5 2/47/5 11/48/5 9/49/5
f 5/50/13 7/9/13 12/51/13 18/52/13
f 1/53/13 5/54/13 18/55/13 16/56/13
f 4/22/2 31/57/2 40/58/2 14/59/2
f 12/60/14 38/61/14 44/20/14 21/16/14
f 41/62/10 13/63/10 22/13/10 47/19/10
f 37/64/14 10/65/14 20/3/14 43/2/14
f 32/66/2 3/39/2 13/67/2 41/68/2
f 29/5/2 37/8/2 39/69/2 30/70/2
f 30/70/2 39/69/2 38/11/2 28/10/2
f 47/19/1 44/20/1 45/71/1 48/72/1
f 41/62/10 47/19/10 48/72/10 42/73/10
f 42/73/10 48/72/10 46/1/10 40/34/10
f 37/64/14 43/2/14 45/71/14 39/74/14
f 39/74/14 45/71/14 44/20/14 38/61/14
f 32/66/2 41/68/2 42/75/2 33/76/2
f 33/76/2 42/75/2 40/58/2 31/57/2
f 48/72/1 45/71/1 43/2/1 46/1/1
usemtl Pages
f 35/77/15 5/54/15 1/53/15 25/78/15
f 8/6/14 29/5/14 34/79/14 6/43/14
f 25/80/10 1/40/10 3/39/10 32/66/10
f 6/46/16 34/81/16 26/82/16 2/47/16
f 28/10/14 7/9/14 5/50/14 35/83/14
f 35/77/17 25/78/17 27/84/17 36/85/17
f 36/85/18 27/84/18 26/82/18 34/81/18
f 25/80/10 32/66/10 33/76/10 27/86/10
f 27/86/10 33/76/10 31/57/10 26/87/10
f 28/10/14 35/83/14 36/88/14 30/70/14
f 30/70/14 36/88/14 34/79/14 29/5/14
f 2/21/10 26/87/10 31/57/10 4/22/10
