# Blender v2.81 (sub 16) OBJ File: 'CurvedScreen.blend'
# www.blender.org
mtllib CurvedScreen_Bottom.mtl
v -0.032944 0.250561 -0.020323
v -0.054643 0.063857 -0.047687
v -0.052199 0.152562 -0.034005
v -0.054643 0.047401 -0.047687
v -0.084110 0.039167 -0.039403
v -0.084199 0.049280 -0.039580
v -0.043353 0.250561 -0.013151
v -0.090461 0.053810 -0.028920
v -0.074893 0.152562 -0.023463
v -0.012278 0.005451 -0.226625
v -0.012278 0.000199 -0.226625
v -0.019364 0.000126 -0.226618
v -0.019370 0.002340 -0.226632
v -0.032944 0.250561 0.020323
v -0.054643 0.063857 0.047687
v -0.054443 0.250561 0.000000
v -0.124920 0.044144 0.000000
v -0.052199 0.152562 0.034005
v -0.098087 0.152562 0.000000
v -0.225596 0.004700 0.000000
v -0.224277 -0.000000 0.000000
v -0.054643 0.047401 0.047687
v -0.084110 0.039167 0.039403
v -0.084199 0.049280 0.039580
v -0.043353 0.250561 0.013151
v -0.090461 0.053810 0.028920
v -0.074893 0.152562 0.023463
v -0.054643 0.063857 0.000000
v -0.032944 0.250561 0.000000
v -0.052199 0.152562 0.000000
v -0.054643 0.047401 0.000000
v -0.140073 0.023529 0.000000
v -0.043615 0.250561 0.000000
v -0.012278 0.005451 0.226625
v -0.012278 0.000199 0.226625
v -0.019364 0.000126 0.226618
v -0.019370 0.002340 0.226632
v -0.173911 0.026059 0.000000
vt 0.377257 0.512797
vt 0.462249 0.843902
vt 0.452792 0.843902
vt 0.347627 0.512797
vt 0.242816 0.724426
vt 0.135491 0.557305
vt 0.157082 0.544781
vt 0.327580 0.880455
vt 0.200457 0.748108
vt 0.187847 0.426933
vt 0.187847 0.488161
vt 0.008019 0.463525
vt 0.008019 0.426933
vt 0.347627 0.426933
vt 0.530435 0.581537
vt 0.530435 0.540964
vt 0.579711 0.539983
vt 0.968065 0.425371
vt 0.920529 0.414654
vt 0.915740 0.396364
vt 0.377258 0.426933
vt 0.976907 0.722889
vt 0.978910 0.729914
vt 0.760112 0.799669
vt 0.759844 0.784533
vt 0.686390 0.345699
vt 0.559360 0.345699
vt 0.642575 0.289271
vt 0.686390 0.277408
vt 0.104867 0.572089
vt 0.263039 0.933128
vt 0.144051 0.774355
vt 0.789721 0.355894
vt 0.863516 0.355894
vt 0.975012 0.701667
vt 0.434154 0.345699
vt 0.530435 0.500979
vt 0.606584 0.500979
vt 0.185043 0.985962
vt 0.461663 0.733377
vt 0.460021 0.722889
vt 0.723073 0.008019
vt 0.461770 0.738741
vt 0.244236 0.616495
vt 0.292310 0.616991
vt 0.292310 0.681853
vt 0.272043 0.681706
vt 0.709814 0.355894
vt 0.986130 0.701817
vt 0.377258 0.341070
vt 0.347628 0.341070
vt 0.452792 0.009972
vt 0.462249 0.009972
vt 0.033785 0.764919
vt 0.046233 0.566254
vt 0.070939 0.569810
vt 0.013419 0.941315
vt 0.081923 0.771071
vt 0.008019 0.390340
vt 0.187847 0.365705
vt 0.481159 0.539983
vt 0.968065 0.286417
vt 0.915740 0.315424
vt 0.920529 0.297134
vt 0.371978 0.887723
vt 0.630135 0.955350
vt 0.630186 0.973253
vt 0.369781 0.896079
vt 0.686390 0.413990
vt 0.642575 0.402127
vt 0.092961 0.966076
vt 0.975012 0.010122
vt 0.454285 0.500979
vt 0.723073 0.683380
vt 0.712959 0.682576
vt 0.981040 0.887723
vt 0.981459 0.893981
vt 0.315246 0.692001
vt 0.343052 0.626790
vt 0.363319 0.626643
vt 0.363319 0.691505
vt 0.986130 0.009972
vn 0.9922 -0.0000 0.1246
vn 0.9731 -0.0000 0.2304
vn 0.9976 -0.0092 0.0688
vn -0.4194 0.1884 -0.8880
vn -0.6289 0.2595 -0.7329
vn -0.5534 0.2209 -0.8031
vn -0.4771 0.1285 -0.8694
vn -0.5721 0.2094 -0.7930
vn 0.9939 -0.1106 -0.0000
vn 0.9947 -0.1030 -0.0000
vn 0.9812 -0.1928 0.0000
vn 0.9999 -0.0138 -0.0000
vn -0.0000 1.0000 -0.0000
vn -0.4891 0.7772 -0.3960
vn -0.4684 0.7589 -0.4524
vn -0.4187 0.8332 -0.3613
vn 1.0000 0.0000 -0.0000
vn -0.2599 -0.0362 -0.9650
vn 0.2691 -0.9631 0.0000
vn 0.2865 -0.9548 0.0792
vn 0.3137 -0.9301 0.1912
vn -0.7209 0.3000 -0.6247
vn -0.6008 0.1476 -0.7857
vn -0.6887 0.2166 -0.6920
vn -0.3854 0.9227 0.0000
vn -0.4080 0.9130 0.0000
vn -0.3845 0.8471 -0.3670
vn -0.6607 0.1635 -0.7326
vn 0.0103 -0.9782 0.2075
vn 0.0450 -0.9744 0.2201
vn -0.9458 -0.0124 -0.3246
vn 0.0004 -0.0018 -1.0000
vn -0.3634 0.8793 -0.3078
vn -0.3735 0.8522 -0.3666
vn 0.9922 -0.0000 -0.1246
vn 0.9976 -0.0092 -0.0688
vn 0.9731 -0.0000 -0.2304
vn -0.4194 0.1884 0.8880
vn -0.5534 0.2209 0.8031
vn -0.6289 0.2595 0.7329
vn -0.4771 0.1285 0.8694
vn -0.5721 0.2094 0.7930
vn -0.4891 0.7772 0.3960
vn -0.4187 0.8332 0.3613
vn -0.4684 0.7589 0.4524
vn -0.2599 -0.0362 0.9650
vn 0.3137 -0.9301 -0.1912
vn 0.2865 -0.9548 -0.0792
vn -0.7209 0.3000 0.6247
vn -0.6008 0.1476 0.7857
vn -0.6887 0.2166 0.6920
vn -0.3845 0.8471 0.3670
vn -0.6607 0.1635 0.7326
vn 0.0450 -0.9744 -0.2201
vn 0.0103 -0.9782 -0.2075
vn -0.9458 -0.0124 0.3246
vn 0.0004 -0.0018 1.0000
vn -0.3634 0.8793 0.3078
vn -0.3735 0.8522 0.3666
usemtl AO_Bake
s 1
f 4/1/1 11/2/2 10/3/2 2/4/3
f 3/5/4 7/6/5 1/7/6
f 2/8/7 9/9/8 3/5/4
f 30/10/9 3/11/10 1/12/11 29/13/11
f 28/14/12 2/4/3 3/11/10 30/10/9
f 16/15/13 33/16/13 7/17/13
f 2/18/14 6/19/15 8/20/16
f 28/14/12 31/21/17 4/1/1 2/4/3
f 21/22/18 20/23/18 6/24/18 5/25/18
f 31/26/19 32/27/19 5/28/20 4/29/21
f 9/9/8 16/30/22 7/6/5
f 8/31/23 19/32/24 9/9/8
f 6/19/15 38/33/25 17/34/26 8/20/16
f 6/19/15 2/18/14 13/35/27
f 32/27/19 21/36/19 5/28/20
f 33/16/13 29/37/13 1/38/13 7/17/13
f 17/39/28 19/32/24 8/31/23
f 8/31/23 9/9/8 2/8/7
f 19/32/24 16/30/22 9/9/8
f 9/9/8 7/6/5 3/5/4
f 5/25/20 12/40/29 11/41/30
f 4/29/21 5/28/20 11/42/30
f 6/24/31 13/43/31 12/40/31 5/25/31
f 10/44/32 11/45/32 12/46/32 13/47/32
f 20/48/33 38/33/25 6/19/15
f 2/18/14 10/49/34 13/35/27
f 22/50/35 15/51/36 34/52/37 35/53/37
f 18/54/38 14/55/39 25/56/40
f 15/57/41 18/54/38 27/58/42
f 30/10/9 29/13/11 14/59/11 18/60/10
f 28/14/12 30/10/9 18/60/10 15/51/36
f 16/15/13 25/61/13 33/16/13
f 15/62/43 26/63/44 24/64/45
f 28/14/12 15/51/36 22/50/35 31/21/17
f 21/65/46 23/66/46 24/67/46 20/68/46
f 31/26/19 22/69/47 23/70/48 32/27/19
f 27/58/42 25/56/40 16/30/49
f 26/71/50 27/58/42 19/32/51
f 24/64/45 26/63/44 17/34/26 38/33/25
f 24/64/45 37/72/52 15/62/43
f 32/27/19 23/70/48 21/36/19
f 33/16/13 25/61/13 14/73/13 29/37/13
f 17/39/53 26/71/50 19/32/51
f 26/71/50 15/57/41 27/58/42
f 19/32/51 27/58/42 16/30/49
f 27/58/42 18/54/38 25/56/40
f 23/70/48 35/74/54 36/75/55
f 22/69/47 35/74/54 23/70/48
f 24/67/56 23/66/56 36/76/56 37/77/56
f 34/78/57 37/79/57 36/80/57 35/81/57
f 20/48/58 24/64/45 38/33/25
f 15/62/43 37/72/52 34/82/59
